<svg width="134" height="30" viewBox="0 0 134 30" fill="none" xmlns="http://www.w3.org/2000/svg">
<g filter="url(#filter0_b_6947_151)">
<path d="M9.09209 20.8186L0.862305 15.9619L9.08706 27.5563L17.321 15.9619L9.08706 20.8186H9.09209ZM9.21441 0.745605L0.987976 14.3994L9.21441 19.2645L17.4442 14.4044L9.21441 0.745605Z" fill="url(#paint0_linear_6947_151)"/>
</g>
<path d="M19.7074 24.0625C19.2033 24.0625 18.739 23.9365 18.3146 23.6844C17.9033 23.4324 17.5717 23.1008 17.3196 22.6895C17.0676 22.265 16.9416 21.8007 16.9416 21.2966V12.5016C16.9416 11.9975 17.0676 11.5399 17.3196 11.1286C17.5717 10.7041 17.9033 10.3659 18.3146 10.1138C18.739 9.86177 19.2033 9.73575 19.7074 9.73575H28.5025C29.0066 9.73575 29.4642 9.86177 29.8754 10.1138C30.2999 10.3659 30.6382 10.7041 30.8903 11.1286C31.1423 11.5399 31.2683 11.9975 31.2683 12.5016V21.2966C31.2683 21.8007 31.1423 22.265 30.8903 22.6895C30.6382 23.1008 30.2999 23.4324 29.8754 23.6844C29.4642 23.9365 29.0066 24.0625 28.5025 24.0625H19.7074ZM19.8069 21.416H28.3632C28.4295 21.416 28.4892 21.3961 28.5423 21.3563C28.5953 21.3033 28.6219 21.2436 28.6219 21.1773V12.621C28.6219 12.5547 28.5953 12.5016 28.5423 12.4618C28.4892 12.4087 28.4295 12.3822 28.3632 12.3822H19.8069C19.7406 12.3822 19.6809 12.4087 19.6278 12.4618C19.588 12.5016 19.5681 12.5547 19.5681 12.621V21.1773C19.5681 21.2436 19.588 21.3033 19.6278 21.3563C19.6809 21.3961 19.7406 21.416 19.8069 21.416ZM35.834 24.0625C35.33 24.0625 34.8723 23.9365 34.4611 23.6844C34.0498 23.4324 33.7182 23.1008 33.4661 22.6895C33.2141 22.2783 33.0881 21.8206 33.0881 21.3165V15.2675C33.0881 14.7634 33.2141 14.3057 33.4661 13.8945C33.7182 13.4833 34.0498 13.1516 34.4611 12.8996C34.8723 12.6475 35.33 12.5215 35.834 12.5215H44.7883V15.1282H35.9335C35.8672 15.1282 35.8075 15.1547 35.7545 15.2078C35.7147 15.2476 35.6948 15.3006 35.6948 15.367V21.217C35.6948 21.2834 35.7147 21.3431 35.7545 21.3961C35.8075 21.4359 35.8672 21.4558 35.9335 21.4558H44.8082V24.0625H35.834ZM49.1643 24.0625C48.6602 24.0625 48.2026 23.9365 47.7913 23.6844C47.3801 23.4324 47.0485 23.1008 46.7964 22.6895C46.5444 22.2783 46.4184 21.8206 46.4184 21.3165V15.2675C46.4184 14.7634 46.5444 14.3057 46.7964 13.8945C47.0485 13.4833 47.3801 13.1516 47.7913 12.8996C48.2026 12.6475 48.6602 12.5215 49.1643 12.5215H55.3925C55.8966 12.5215 56.3542 12.6475 56.7655 12.8996C57.19 13.1516 57.5216 13.4833 57.7604 13.8945C58.0124 14.3057 58.1384 14.7634 58.1384 15.2675V19.6053H49.025V21.217C49.025 21.2834 49.0449 21.3431 49.0847 21.3961C49.1378 21.4359 49.1975 21.4558 49.2638 21.4558H58.1384V24.0625H49.1643ZM49.025 17.2573H55.5318V15.367C55.5318 15.3006 55.5052 15.2476 55.4522 15.2078C55.4124 15.1547 55.3593 15.1282 55.293 15.1282H49.2638C49.1975 15.1282 49.1378 15.1547 49.0847 15.2078C49.0449 15.2476 49.025 15.3006 49.025 15.367V17.2573ZM62.9614 24.0625C62.4574 24.0625 61.9931 23.9365 61.5686 23.6844C61.1573 23.4324 60.8257 23.1008 60.5736 22.6895C60.3349 22.2783 60.2155 21.8206 60.2155 21.3165V16.9787H69.3289V15.367C69.3289 15.3006 69.3024 15.2476 69.2493 15.2078C69.2095 15.1547 69.1564 15.1282 69.0901 15.1282H60.2155V12.5215H69.1896C69.6937 12.5215 70.1513 12.6475 70.5626 12.8996C70.9871 13.1516 71.3187 13.4833 71.5575 13.8945C71.8095 14.3057 71.9356 14.7634 71.9356 15.2675V24.0625H62.9614ZM63.0609 21.4558H69.3289V19.3267H62.8222V21.217C62.8222 21.2834 62.8421 21.3431 62.8818 21.3961C62.9349 21.4359 62.9946 21.4558 63.0609 21.4558ZM73.8576 24.0625V12.5215H82.8317C83.3358 12.5215 83.7935 12.6475 84.2047 12.8996C84.6292 13.1516 84.9608 13.4833 85.1996 13.8945C85.4517 14.3057 85.5777 14.7634 85.5777 15.2675V24.0625H82.971V15.367C82.971 15.3006 82.9445 15.2476 82.8914 15.2078C82.8516 15.1547 82.7986 15.1282 82.7322 15.1282H76.7031C76.6367 15.1282 76.577 15.1547 76.524 15.2078C76.4842 15.2476 76.4643 15.3006 76.4643 15.367V24.0625H73.8576Z" fill="white" fill-opacity="0.6"/>
<path d="M87.7523 24.0625V9.73575H90.6376L99.4326 20.2022V9.73575H102.079V24.0625H99.1939L90.3789 13.5761V24.0625H87.7523ZM104.348 24.0625V9.73575H117.541V12.3822H106.995V15.5659H115.471V18.2323H106.995V24.0625H104.348ZM124.016 24.0625V12.3822H118.166V9.73575H132.493V12.3822H126.662V24.0625H124.016Z" fill="white"/>
<defs>
<filter id="filter0_b_6947_151" x="-211.386" y="-211.503" width="441.078" height="451.307" filterUnits="userSpaceOnUse" color-interpolation-filters="sRGB">
<feFlood flood-opacity="0" result="BackgroundImageFix"/>
<feGaussianBlur in="BackgroundImageFix" stdDeviation="106.124"/>
<feComposite in2="SourceAlpha" operator="in" result="effect1_backgroundBlur_6947_151"/>
<feBlend mode="normal" in="SourceGraphic" in2="effect1_backgroundBlur_6947_151" result="shape"/>
</filter>
<linearGradient id="paint0_linear_6947_151" x1="0.862305" y1="0.745605" x2="21.0134" y2="1.23055" gradientUnits="userSpaceOnUse">
<stop offset="0.183111" stop-color="#FF56F6"/>
<stop offset="0.432593" stop-color="#B936EE"/>
<stop offset="0.854443" stop-color="#3BACE2"/>
<stop offset="1" stop-color="#406AFF"/>
</linearGradient>
</defs>
</svg>
